HIERARCHY
ROOT pelvis
{
	OFFSET 0.000000 0.000000 0.000000
	CHANNELS 6 Xposition Yposition Zposition Zrotation Xrotation Yrotation
	JOINT lfemur
	{
		OFFSET 11.446000 0.000000 0.000000
		CHANNELS 3 Zrotation Xrotation Yrotation
		JOINT ltibia
		{
			OFFSET 0.000000 -42.030400 0.000000
			CHANNELS 3 Zrotation Xrotation Yrotation
			JOINT lfoot
			{
				OFFSET 0.000000 -39.930200 0.000000
				CHANNELS 3 Zrotation Xrotation Yrotation
				JOINT ltoes
				{
					OFFSET 0.000000 0.000000 11.775800
					CHANNELS 3 Zrotation Xrotation Yrotation
					End Site
					{
					    OFFSET 0.000000 0.000000 5.000000
					}
				}
			}
		}
	}
	JOINT rfemur
	{
		OFFSET -11.446000 0.000000 0.000000
		CHANNELS 3 Zrotation Xrotation Yrotation
		JOINT rtibia
		{
			OFFSET 0.000000 -42.030400 0.000000
			CHANNELS 3 Zrotation Xrotation Yrotation
			JOINT rfoot
			{
				OFFSET 0.000000 -39.930200 0.000000
				CHANNELS 3 Zrotation Xrotation Yrotation
				JOINT rtoes
				{
					OFFSET 0.000000 0.000000 11.775800
					CHANNELS 3 Zrotation Xrotation Yrotation
					End Site
					{
					    OFFSET 0.000000 0.000000 5.000000
					}
				}
			}
		}
	}
	JOINT thorax
	{
		OFFSET 0.000000 11.255600 -5.000000
		CHANNELS 3 Zrotation Xrotation Yrotation
		JOINT head
		{
			OFFSET 0.000000 43.799300 0.000000
			CHANNELS 3 Zrotation Xrotation Yrotation
			End Site
			{
			    OFFSET 0.000000 5.000000 0.000000
			}
		}
		JOINT lclavicle
		{
			OFFSET 0.000000 39.863000 0.000000
			CHANNELS 3 Zrotation Xrotation Yrotation
			JOINT lhumerus
			{
				OFFSET 17.380600 4.958300 0.000000
				CHANNELS 3 Zrotation Xrotation Yrotation
				JOINT lradius
				{
					OFFSET 0.000000 -27.561300 0.000000
					CHANNELS 3 Zrotation Xrotation Yrotation
					JOINT lhand
					{
						OFFSET 0.000000 -26.933000 0.000000
						CHANNELS 3 Zrotation Xrotation Yrotation
						End Site
						{
						    OFFSET 0.000000 -5.000000 0.000000
						}
					}
				}
			}
		}
		JOINT rclavicle
		{
			OFFSET 0.000000 39.863000 0.000000
			CHANNELS 3 Zrotation Xrotation Yrotation
			JOINT rhumerus
			{
				OFFSET -17.380600 4.958300 0.000000
				CHANNELS 3 Zrotation Xrotation Yrotation
				JOINT rradius
				{
					OFFSET 0.000000 -27.561300 0.000000
					CHANNELS 3 Zrotation Xrotation Yrotation
					JOINT rhand
					{
						OFFSET 0.000000 -26.933000 0.000000
						CHANNELS 3 Zrotation Xrotation Yrotation
						End Site
						{
						    OFFSET 0.000000 -5.000000 0.000000
						}
					}
				}
			}
		}
	}
}
MOTION
Frames:	18
Frame Time:	0.0333333
65.725500 87.257100 4.929900 -2.952449 -2.746676 -88.890602 -7.292288 0.558200 -3.808950 -0.000000 15.851318 0.000000 -0.000000 1.569298 7.382083 -0.000000 -1.367623 -0.000000 -3.702533 -1.702317 -6.297087 -0.000000 20.237774 -0.000000 0.000000 -0.089591 -1.782113 -0.000000 -29.548391 -0.000000 -5.188983 1.735997 0.045968 18.175509 24.391341 -2.779645 3.722715 -0.000000 4.027550 87.570513 -4.936133 59.839531 0.000000 -13.228121 -56.281915 8.391787 -0.478138 0.000000 -4.811203 -0.000000 -1.736195 -76.910065 4.961470 -64.948324 0.000001 -22.073068 42.320999 -8.235116 -0.609460 -0.000000 
65.734800 87.274800 4.989400 -2.852996 -2.727455 -88.904931 -7.316214 0.479394 -3.750787 -0.000000 15.779460 0.000000 -0.000000 1.632062 7.360060 -0.000000 -1.369203 0.000000 -3.760518 -1.456893 -6.318349 0.000000 19.275705 -0.000000 0.000000 -0.061467 -1.464156 -0.000000 -29.549153 -0.000000 -5.176147 1.664189 0.013885 18.116208 24.413061 -2.782550 3.753757 0.000000 4.127058 87.370645 -5.137950 60.113162 0.000000 -13.061508 -56.340115 8.688102 -0.474704 -0.000000 -4.753129 -0.000000 -1.691006 -77.019873 5.090106 -64.875940 0.000000 -22.082541 42.291792 -7.981195 -0.695085 -0.000000 
65.722700 87.310900 5.037900 -2.825062 -2.578135 -88.949194 -7.207470 0.537096 -3.771605 -0.000000 15.638592 -0.000000 0.000000 1.641666 7.438652 0.000000 -1.366554 -0.000000 -3.614919 -1.211916 -6.310350 0.000000 18.701270 -0.000000 0.000000 0.215892 -1.428969 0.000000 -29.548808 0.000000 -4.985431 1.679174 -0.019008 17.875628 24.668596 -2.549130 3.778042 -0.000000 4.017446 87.045132 -4.883627 60.205274 -0.000001 -13.103545 -56.628368 8.490661 -0.684379 0.000000 -4.730716 -0.000000 -1.711536 -77.040587 5.177902 -64.503921 0.000000 -22.268067 42.899052 -8.922365 -0.375801 -0.000000 
65.742300 87.340000 5.068600 -2.688234 -2.409189 -89.075915 -7.059519 0.429692 -3.669400 0.000000 15.551572 -0.000000 0.000000 1.652361 7.452904 -0.000000 -1.361680 0.000000 -3.433306 -1.116011 -6.162961 -0.000000 18.153001 -0.000000 -0.000000 0.538034 -1.432482 0.000000 -29.549167 0.000000 -4.783487 1.607355 0.039104 17.685661 24.773476 -2.307675 3.701482 -0.000000 3.948126 86.863363 -4.760132 60.678674 0.000001 -13.074175 -56.688911 8.651698 -0.542423 -0.000000 -4.627137 0.000000 -1.788396 -77.133352 5.100272 -64.653625 0.000001 -22.430061 43.028752 -8.713689 -0.446727 -0.000000 
65.802700 87.363800 5.098200 -2.506767 -2.317829 -89.304233 -6.990301 0.259654 -3.466715 0.000000 15.470204 -0.000000 0.000000 1.675031 7.421289 0.000000 -1.364190 -0.000000 -3.388451 -1.272879 -6.151504 -0.000000 17.886094 -0.000000 -0.000000 0.704693 -1.231547 -0.000000 -29.549078 -0.000000 -4.697750 1.579904 0.148269 17.482540 24.798735 -1.865295 3.578954 -0.000000 3.962744 86.556266 -4.317896 59.966348 -0.000001 -13.302733 -56.771502 9.261312 -0.477275 0.000000 -4.414231 0.000000 -1.920696 -77.049407 5.023816 -64.576514 0.000001 -22.900212 42.842507 -8.651815 -0.467930 0.000000 
65.883900 87.398500 5.128600 -2.217235 -2.138825 -89.578499 -6.818211 0.007610 -3.131848 -0.000000 15.287450 -0.000000 0.000000 1.714758 7.332510 -0.000000 -1.367013 0.000000 -3.240142 -1.475399 -6.119389 -0.000000 17.507761 -0.000000 -0.000000 1.022989 -0.998667 0.000000 -29.548917 -0.000000 -4.557653 1.442603 0.189090 17.314532 24.890387 -1.332862 3.638132 -0.000000 3.268597 85.441923 -2.781984 59.694870 -0.000000 -13.948616 -57.014481 10.747720 -0.429882 0.000000 -3.763901 0.000000 -1.703389 -76.980112 5.291490 -64.429183 0.000001 -23.598581 42.031044 -8.997725 -0.353490 0.000000 
66.009100 87.418300 5.158000 -1.879675 -2.063394 -89.732151 -6.756303 -0.349852 -2.994155 0.000000 15.187386 -0.000000 -0.000000 1.757030 7.287230 -0.000000 -1.367553 -0.000000 -3.196716 -1.817396 -6.147424 -0.000000 17.255461 -0.000000 -0.000000 1.253073 -0.811738 0.000000 -29.549232 -0.000000 -4.529924 1.451825 0.071086 17.064010 24.962462 -0.678175 3.240631 0.000000 2.825191 84.339827 -1.482311 58.997122 0.000001 -14.042307 -57.916591 12.643012 -0.850984 -0.000000 -2.237422 -0.000000 -1.398181 -77.302037 5.915143 -62.944813 -0.000001 -24.462381 41.777052 -9.780123 -0.092396 0.000000 
66.138100 87.438200 5.181500 -1.631766 -2.005303 -89.767439 -6.698332 -0.623726 -2.910422 -0.000000 15.053581 -0.000000 -0.000000 1.870895 7.238796 -0.000000 -1.363721 -0.000000 -3.120699 -2.023158 -6.016792 0.000000 16.977129 -0.000000 0.000000 1.411127 -0.916836 -0.000000 -29.549006 -0.000000 -4.550608 1.660101 -0.150178 16.824241 24.839725 -0.058867 2.034650 0.000000 2.273744 83.475937 0.150888 56.938929 0.000001 -14.127927 -56.859075 13.890128 -1.212327 -0.000000 -0.457040 0.000000 -1.294164 -77.212496 6.294812 -60.924857 0.000001 -25.126765 40.383791 -10.091921 0.010103 0.000000 
66.313500 87.454700 5.188500 -1.298692 -1.956488 -89.694546 -6.655613 -1.094276 -2.983249 -0.000000 15.091514 -0.000000 0.000000 1.960494 7.216713 0.000000 -1.367713 -0.000000 -3.053306 -2.417323 -5.922062 -0.000000 16.875623 -0.000000 -0.000000 1.584643 -1.080875 -0.000000 -29.549300 -0.000000 -4.587918 1.998874 -0.433877 16.585344 24.593885 0.421252 0.717978 0.000000 2.063037 81.730088 0.989609 55.641189 -0.000001 -13.767398 -56.366362 14.789145 -1.295812 0.000000 1.701459 0.000000 -1.315319 -76.618925 6.528738 -58.536105 -0.000000 -25.854541 38.360851 -9.667606 -0.136862 -0.000000 
66.546700 87.459600 5.189200 -0.902792 -1.968652 -89.737852 -6.678223 -1.716109 -3.034470 -0.000000 15.237054 -0.000000 0.000000 2.032865 7.206276 -0.000000 -1.366781 -0.000000 -3.052565 -3.008236 -5.734679 -0.000000 16.934047 -0.000000 -0.000000 1.702115 -1.187659 -0.000000 -29.548569 0.000000 -4.700051 2.370835 -0.665230 16.311281 24.254626 1.215904 -0.986674 0.000000 2.521881 79.614182 0.960682 54.407480 0.000001 -13.015680 -55.910025 15.645520 -1.479406 0.000000 3.895636 0.000000 -1.165028 -75.245400 6.597418 -56.441695 -0.000000 -25.840171 37.445948 -8.548872 -0.517497 0.000000 
66.793700 87.474000 5.163600 -0.598726 -1.900080 -89.855808 -6.606334 -2.236041 -3.066894 0.000000 15.347378 0.000000 -0.000000 2.107878 7.298830 -0.000000 -1.365379 -0.000000 -2.969143 -3.481202 -5.718717 -0.000000 16.866328 -0.000000 -0.000000 1.960743 -1.078169 -0.000000 -29.548993 0.000000 -4.718842 2.909953 -0.809590 15.974274 23.990061 1.773610 -3.016163 0.000000 2.664682 76.869833 1.056640 53.611315 -0.000000 -12.193902 -53.718844 16.052655 -1.535033 0.000000 6.352354 0.000000 -1.202461 -73.525283 6.008512 -54.188669 0.000001 -25.101138 35.138168 -7.168166 -0.981654 0.000000 
67.078500 87.482900 5.131900 -0.135843 -1.767278 -89.994613 -6.470233 -2.946755 -3.084525 0.000000 15.486499 -0.000000 0.000000 2.097803 7.398089 -0.000000 -1.366619 -0.000000 -2.818020 -4.099694 -5.709749 0.000000 16.709016 -0.000000 -0.000000 2.226926 -0.995617 0.000000 -29.549156 0.000000 -4.746673 3.312815 -0.976851 15.807122 23.555158 2.252951 -5.246328 -0.000000 2.544874 73.404847 1.502655 53.217614 0.000000 -11.480449 -51.056116 15.562722 -1.429443 0.000000 9.479707 -0.000000 -0.555049 -71.800853 6.173592 -50.883372 -0.000001 -24.098868 33.253859 -5.046758 -1.696688 0.000000 
67.391800 87.490200 5.103400 0.426637 -1.684820 -90.197946 -6.374465 -3.832938 -2.967297 0.000000 15.724038 -0.000000 -0.000000 2.164665 7.432462 -0.000000 -1.367262 -0.000000 -2.709238 -4.904338 -5.553901 0.000000 16.686287 0.000000 -0.000000 2.488118 -0.950322 0.000000 -29.548993 -0.000000 -4.772187 3.642346 -0.844494 15.694296 23.196591 2.678208 -7.875381 0.000000 2.505520 69.311222 1.353702 51.463690 -0.000000 -10.849367 -47.110515 13.982821 -1.059098 0.000000 12.062459 0.000000 -0.622489 -68.643847 5.059055 -47.208686 0.000000 -22.377012 33.340145 -3.850496 -2.101357 0.000000 
67.687600 87.519700 5.086700 0.949378 -1.534650 -90.003607 -6.253032 -4.637806 -3.316034 -0.000000 15.893761 0.000000 -0.000000 2.279294 7.513209 -0.000000 -1.365358 0.000000 -2.571772 -5.366411 -5.928460 -0.000000 16.207255 -0.000000 0.000000 2.891931 -0.739623 -0.000000 -29.548743 -0.000000 -4.688790 4.203446 -0.949838 15.592150 22.818894 3.124301 -10.748586 0.000000 2.992300 64.652259 -0.052414 47.666006 0.000000 -9.982984 -44.805040 12.258473 -0.983468 -0.000000 15.014642 0.000000 -0.448885 -64.904301 5.309063 -40.251239 -0.000000 -22.898480 31.780380 -1.557213 -2.876912 0.000000 
68.049300 87.523800 5.095600 1.651110 -1.470920 -89.745726 -6.237342 -5.751693 -3.614242 -0.000000 16.208211 -0.000000 0.000000 2.350622 7.501951 -0.000000 -1.366626 -0.000000 -2.506304 -6.238548 -5.899419 -0.000000 16.140259 0.000000 0.000000 3.083455 -0.980564 0.000000 -29.548514 0.000000 -4.707978 4.708897 -0.972919 15.696172 22.064128 3.194671 -13.902457 0.000000 3.709237 59.492712 -1.512753 37.801136 -0.000000 -10.696566 -42.085231 11.567973 -0.892473 0.000000 17.762705 -0.000000 -0.434970 -60.078822 4.839227 -35.452579 0.000000 -22.942564 31.368481 -1.046278 -3.053723 -0.000000 
68.436800 87.518000 5.079700 2.404206 -1.417832 -89.184408 -6.206387 -6.995932 -3.790763 -0.000000 16.607190 -0.000000 0.000000 2.545484 7.108679 0.000000 -1.365900 -0.000000 -2.476962 -7.154854 -6.175036 0.000000 16.141260 -0.000000 -0.000000 3.239341 -1.264012 0.000000 -29.548163 -0.000000 -4.836381 5.070343 -1.028889 16.176969 21.475030 2.906471 -16.657383 -0.000000 3.048364 53.869778 -1.892701 29.611675 0.000000 -12.121419 -41.083950 11.409663 -1.313419 0.000000 20.337683 0.000000 0.141305 -54.458101 5.235372 -29.442171 0.000000 -23.696141 31.524751 0.138515 -3.459075 0.000000 
68.851900 87.509700 5.027500 2.999097 -1.447904 -88.389920 -6.294403 -8.098452 -4.246780 -0.000000 16.977516 -0.000000 0.000000 2.808095 6.791215 0.000000 -1.367861 -0.000000 -2.542111 -8.003281 -6.457579 -0.000000 16.363612 -0.000000 0.000000 3.233926 -1.745981 0.000000 -29.548197 0.000000 -5.043948 5.827413 -1.218128 16.518109 20.708493 2.708912 -18.745628 -0.000000 2.316900 47.921063 -3.141515 24.340528 0.000001 -13.319486 -38.897977 10.710487 -1.789146 0.000000 22.046598 0.000000 0.465841 -47.425183 4.256897 -26.134603 0.000001 -23.561161 32.408611 -0.486170 -3.257303 0.000000 
69.178500 87.496000 5.046800 3.385686 -1.436796 -87.600432 -6.418781 -8.828459 -4.811765 -0.000000 17.161554 0.000000 -0.000000 2.981624 6.618535 -0.000000 -1.370076 0.000000 -2.671736 -8.598704 -7.041330 0.000000 16.611068 0.000000 0.000000 3.241612 -1.919420 -0.000000 -29.548067 -0.000000 -5.164469 6.537916 -1.587952 16.728212 20.255383 2.472940 -20.048398 0.000000 1.750714 41.521001 -4.332718 18.158458 0.000000 -15.223617 -40.327475 9.615327 -2.744359 0.000000 23.661751 -0.000000 1.587946 -40.400919 3.217339 -25.724152 0.000000 -22.368612 32.218411 -2.250045 -2.661475 -0.000000 
